<?xml version="1.0" standalone="no"?><!DOCTYPE svg PUBLIC "-//W3C//DTD SVG 1.1//EN" "http://www.w3.org/Graphics/SVG/1.1/DTD/svg11.dtd"><svg width="100%" height="100%" viewBox="0 0 34 34" version="1.1" xmlns="http://www.w3.org/2000/svg" xmlns:xlink="http://www.w3.org/1999/xlink" xml:space="preserve" style="fill-rule:evenodd;clip-rule:evenodd;stroke-linejoin:round;stroke-miterlimit:1.41421;"><g id="Icon_Check"><path d="M17,33.9c-9.3,0 -16.9,-7.6 -16.9,-16.9c0,-9.3 7.6,-16.9 16.9,-16.9c9.3,0 16.9,7.6 16.9,16.9c0,9.3 -7.6,16.9 -16.9,16.9ZM17,1.9c-8.3,0 -15.1,6.8 -15.1,15.1c0,8.3 6.8,15.1 15.1,15.1c8.3,0 15.1,-6.8 15.1,-15.1c0,-8.3 -6.8,-15.1 -15.1,-15.1Z" style="fill:#000;fill-rule:nonzero;"/><path d="M15,24.3l-8.7,-8.6l1.4,-1.4l7.3,7.4l11.3,-11.4l1.4,1.3l-12.7,12.7Z" style="fill:#000;fill-rule:nonzero;"/></g></svg>