<?xml version="1.0" standalone="no"?><!DOCTYPE svg PUBLIC "-//W3C//DTD SVG 1.1//EN" "http://www.w3.org/Graphics/SVG/1.1/DTD/svg11.dtd"><svg width="100%" height="100%" viewBox="0 0 29 29" version="1.1" xmlns="http://www.w3.org/2000/svg" xmlns:xlink="http://www.w3.org/1999/xlink" xml:space="preserve" style="fill-rule:evenodd;clip-rule:evenodd;stroke-linejoin:round;stroke-miterlimit:1.41421;"><g id="Icon_Pencil"><path d="M0.7,28.3l2.4,-9.8l14.8,-14.8l7.3,7.3l-14.8,14.8l-9.7,2.5ZM4.8,19.5l-1.6,6.2l6.2,-1.6l13.2,-13.2l-4.7,-4.7l-13.1,13.3Z" style="fill:#000;fill-rule:nonzero;"/><path d="M8.9,25.3c-0.6,-2.5 -2.6,-4.5 -5.1,-5.1l0.5,-1.8c3.2,0.8 5.7,3.3 6.5,6.5l-1.9,0.4Z" style="fill:#000;fill-rule:nonzero;"/><path d="M20.365,7.357l-13.011,13.011l1.344,1.343l13.01,-13.011l-1.343,-1.343Z" style="fill:#000;"/><path d="M2,27l2.9,-0.7c-0.3,-1.1 -1.1,-1.9 -2.2,-2.2l-0.7,2.9Z" style="fill:#000;fill-rule:nonzero;"/><path d="M26,10.3l-7.3,-7.3l2.9,-2.9l0.5,0.1c3.5,0.5 6.3,3.3 6.8,6.8l0.1,0.5l-3,2.8ZM21.3,3l4.7,4.7l0.9,-0.9c-0.5,-2.3 -2.3,-4.2 -4.7,-4.7l-0.9,0.9Z" style="fill:#000;fill-rule:nonzero;"/></g></svg>